REM DIRINDEX 1\2,1\3,1\4
REM DIRNAME cjc151,folder01,folder02,folder03
TITLE ""
FILE "149 149_TOEFL_3900.mp3" MP3
  TRACK 01 AUDIO
    TITLE "2:cjc151_6486"
    INDEX 01 00:00:00
  TRACK 02 AUDIO
    TITLE "0:"
    INDEX 01 00:01:28
  TRACK 03 AUDIO
    TITLE "3:cjc151_6487"
    INDEX 01 00:03:04
  TRACK 04 AUDIO
    TITLE "0:"
    INDEX 01 00:07:39
  TRACK 05 AUDIO
    TITLE "2:cjc151_6488"
    INDEX 01 00:09:18
  TRACK 06 AUDIO
    TITLE "0:"
    INDEX 01 00:10:08
  TRACK 07 AUDIO
    TITLE "3:cjc151_6489"
    INDEX 01 00:11:64
  TRACK 08 AUDIO
    TITLE "0:"
    INDEX 01 00:16:26
  TRACK 09 AUDIO
    TITLE "2:cjc151_6490"
    INDEX 01 00:18:03
  TRACK 10 AUDIO
    TITLE "0:"
    INDEX 01 00:18:72
  TRACK 11 AUDIO
    TITLE "3:cjc151_6491"
    INDEX 01 00:20:51
  TRACK 12 AUDIO
    TITLE "0:"
    INDEX 01 00:23:34
  TRACK 13 AUDIO
    TITLE "2:cjc151_6492"
    INDEX 01 00:25:13
  TRACK 14 AUDIO
    TITLE "0:"
    INDEX 01 00:26:42
  TRACK 15 AUDIO
    TITLE "3:cjc151_6493"
    INDEX 01 00:28:21
  TRACK 16 AUDIO
    TITLE "0:"
    INDEX 01 00:32:62
  TRACK 17 AUDIO
    TITLE "2:cjc151_6494"
    INDEX 01 00:34:42
  TRACK 18 AUDIO
    TITLE "0:"
    INDEX 01 00:35:37
  TRACK 19 AUDIO
    TITLE "3:cjc151_6495"
    INDEX 01 00:37:16
  TRACK 20 AUDIO
    TITLE "0:"
    INDEX 01 00:42:27
  TRACK 21 AUDIO
    TITLE "2:cjc151_6496"
    INDEX 01 00:44:01
  TRACK 22 AUDIO
    TITLE "0:"
    INDEX 01 00:45:18
  TRACK 23 AUDIO
    TITLE "3:cjc151_6497"
    INDEX 01 00:46:70
  TRACK 24 AUDIO
    TITLE "0:"
    INDEX 01 00:50:48
  TRACK 25 AUDIO
    TITLE "2:cjc151_6498"
    INDEX 01 00:52:28
  TRACK 26 AUDIO
    TITLE "0:"
    INDEX 01 00:53:39
  TRACK 27 AUDIO
    TITLE "3:cjc151_6499"
    INDEX 01 00:55:18
  TRACK 28 AUDIO
    TITLE "0:"
    INDEX 01 00:59:39
  TRACK 29 AUDIO
    TITLE "2:cjc151_6500"
    INDEX 01 01:01:19
  TRACK 30 AUDIO
    TITLE "0:"
    INDEX 01 01:02:18
  TRACK 31 AUDIO
    TITLE "3:cjc151_6501"
    INDEX 01 01:04:00
  TRACK 32 AUDIO
    TITLE "0:"
    INDEX 01 01:08:09
  TRACK 33 AUDIO
    TITLE "2:cjc151_6502"
    INDEX 01 01:09:61
  TRACK 34 AUDIO
    TITLE "0:"
    INDEX 01 01:10:59
  TRACK 35 AUDIO
    TITLE "3:cjc151_6503"
    INDEX 01 01:12:38
  TRACK 36 AUDIO
    TITLE "0:"
    INDEX 01 01:17:45
  TRACK 37 AUDIO
    TITLE "2:cjc151_6504"
    INDEX 01 01:19:21
  TRACK 38 AUDIO
    TITLE "0:"
    INDEX 01 01:20:32
  TRACK 39 AUDIO
    TITLE "3:cjc151_6505"
    INDEX 01 01:22:11
  TRACK 40 AUDIO
    TITLE "0:"
    INDEX 01 01:26:66
  TRACK 41 AUDIO
    TITLE "2:cjc151_6506"
    INDEX 01 01:28:45
  TRACK 42 AUDIO
    TITLE "0:"
    INDEX 01 01:29:45
  TRACK 43 AUDIO
    TITLE "3:cjc151_6507"
    INDEX 01 01:31:22
  TRACK 44 AUDIO
    TITLE "0:"
    INDEX 01 01:34:38
  TRACK 45 AUDIO
    TITLE "2:cjc151_6508"
    INDEX 01 01:36:19
  TRACK 46 AUDIO
    TITLE "0:"
    INDEX 01 01:37:21
  TRACK 47 AUDIO
    TITLE "3:cjc151_6509"
    INDEX 01 01:38:71
  TRACK 48 AUDIO
    TITLE "0:"
    INDEX 01 01:43:02
  TRACK 49 AUDIO
    TITLE "2:cjc151_6510"
    INDEX 01 01:44:52
  TRACK 50 AUDIO
    TITLE "0:"
    INDEX 01 01:45:61
  TRACK 51 AUDIO
    TITLE "3:cjc151_6511"
    INDEX 01 01:47:40
  TRACK 52 AUDIO
    TITLE "0:"
    INDEX 01 01:52:36
  TRACK 53 AUDIO
    TITLE "2:cjc151_6512"
    INDEX 01 01:54:13
  TRACK 54 AUDIO
    TITLE "0:"
    INDEX 01 01:55:28
  TRACK 55 AUDIO
    TITLE "3:cjc151_6513"
    INDEX 01 01:57:09
  TRACK 56 AUDIO
    TITLE "0:"
    INDEX 01 02:01:21
  TRACK 57 AUDIO
    TITLE "2:cjc151_6514"
    INDEX 01 02:02:73
  TRACK 58 AUDIO
    TITLE "0:"
    INDEX 01 02:04:12
  TRACK 59 AUDIO
    TITLE "3:cjc151_6515"
    INDEX 01 02:05:64
  TRACK 60 AUDIO
    TITLE "0:"
    INDEX 01 02:09:46
  TRACK 61 AUDIO
    TITLE "2:cjc151_6516"
    INDEX 01 02:11:27
  TRACK 62 AUDIO
    TITLE "0:"
    INDEX 01 02:12:52
  TRACK 63 AUDIO
    TITLE "3:cjc151_6517"
    INDEX 01 02:14:31
  TRACK 64 AUDIO
    TITLE "0:"
    INDEX 01 02:17:45
  TRACK 65 AUDIO
    TITLE "2:cjc151_6518"
    INDEX 01 02:19:23
  TRACK 66 AUDIO
    TITLE "0:"
    INDEX 01 02:20:32
  TRACK 67 AUDIO
    TITLE "3:cjc151_6519"
    INDEX 01 02:22:11
  TRACK 68 AUDIO
    TITLE "0:"
    INDEX 01 02:27:13
  TRACK 69 AUDIO
    TITLE "2:cjc151_6520"
    INDEX 01 02:28:63
  TRACK 70 AUDIO
    TITLE "0:"
    INDEX 01 02:30:11
  TRACK 71 AUDIO
    TITLE "3:cjc151_6521"
    INDEX 01 02:31:67
  TRACK 72 AUDIO
    TITLE "0:"
    INDEX 01 02:36:45
  TRACK 73 AUDIO
    TITLE "2:cjc151_6522"
    INDEX 01 02:38:24
  TRACK 74 AUDIO
    TITLE "0:"
    INDEX 01 02:39:47
  TRACK 75 AUDIO
    TITLE "3:cjc151_6523"
    INDEX 01 02:41:26
  TRACK 76 AUDIO
    TITLE "0:"
    INDEX 01 02:44:64
  TRACK 77 AUDIO
    TITLE "2:cjc151_6524"
    INDEX 01 02:46:41
  TRACK 78 AUDIO
    TITLE "0:"
    INDEX 01 02:47:56
  TRACK 79 AUDIO
    TITLE "3:cjc151_6525"
    INDEX 01 02:49:34
  TRACK 80 AUDIO
    TITLE "0:"
    INDEX 01 02:54:06
  TRACK 81 AUDIO
    TITLE "2:cjc151_6526"
    INDEX 01 02:55:58
  TRACK 82 AUDIO
    TITLE "0:"
    INDEX 01 02:56:71
  TRACK 83 AUDIO
    TITLE "3:cjc151_6527"
    INDEX 01 02:58:48
  TRACK 84 AUDIO
    TITLE "0:"
    INDEX 01 03:03:53
  TRACK 85 AUDIO
    TITLE "2:cjc151_6528"
    INDEX 01 03:05:31
  TRACK 86 AUDIO
    TITLE "0:"
    INDEX 01 03:06:48
  TRACK 87 AUDIO
    TITLE "3:cjc151_6529"
    INDEX 01 03:08:27
  TRACK 88 AUDIO
    TITLE "0:"
    INDEX 01 03:12:54
